Coordinates
version=1
nRows=17
nColumns=24
inDegrees=yes

Units are S.I. units (second, meters, Newtons, ...)
Angles are in degrees.

endheader
time	pelvis_tilt	pelvis_list	pelvis_rotation	pelvis_tx	pelvis_ty	pelvis_tz	hip_flexion_r	hip_adduction_r	hip_rotation_r	knee_angle_r	ankle_angle_r	subtalar_angle_r	mtp_angle_r	hip_flexion_l	hip_adduction_l	hip_rotation_l	knee_angle_l	ankle_angle_l	subtalar_angle_l	mtp_angle_l	lumbar_extension	lumbar_bending	lumbar_rotation
      5.23500000	     11.47233342	     12.95939281	      7.32019271	      1.15889322	      0.73883620	     -0.29083693	     19.68186344	    -19.52990828	    -14.03379694	    -17.20618839	     25.20244402	     16.18957644	      0.00000000	    -27.26868938	     12.37250423	     11.00958968	    -11.69619926	     31.23384697	     13.49195928	      0.00000000	    -34.98943504	     -5.02205432	    -17.36016515
      5.24000000	     11.39625187	     13.04873980	      7.99413916	      1.16705227	      0.73805773	     -0.29019607	     19.45062790	    -19.56191892	    -14.36225430	    -16.04556118	     24.98384352	     16.96420425	      0.00000000	    -27.61695669	     11.91182992	     11.27737474	    -12.31205953	     31.34648111	     14.14232244	      0.00000000	    -34.82754990	     -4.94174152	    -17.91878380
      5.24500000	     11.32306227	     13.12428016	      8.65112066	      1.17529706	      0.73730514	     -0.28954358	     19.20212455	    -19.57200149	    -14.60302322	    -15.03059920	     24.74695669	     17.54181216	      0.00000000	    -27.93202082	     11.44319497	     11.53221035	    -12.98865394	     31.40454286	     14.75334290	      0.00000000	    -34.65574486	     -4.86044436	    -18.43523134
      5.25000000	     11.24587140	     13.19474250	      9.27660884	      1.18361448	      0.73657496	     -0.28885712	     18.95366943	    -19.56528809	    -14.76715758	    -14.16531285	     24.46004379	     17.87792341	      0.00000000	    -28.19952238	     10.98714649	     11.79280129	    -13.74008833	     31.37978176	     15.30452062	      0.00000000	    -34.47258103	     -4.80189972	    -18.89245764
      5.25500000	     11.18006444	     13.23325327	      9.92010659	      1.19201724	      0.73588304	     -0.28822484	     18.67592326	    -19.53772433	    -14.88387071	    -13.48284806	     24.20030691	     18.06444612	      0.00000000	    -28.43500594	     10.49219549	     12.03840142	    -14.56498416	     31.31431345	     15.84265921	      0.00000000	    -34.28262499	     -4.68836382	    -19.32665978
      5.26000000	     11.12381359	     13.25251408	     10.53330736	      1.20052078	      0.73521946	     -0.28758562	     18.38437041	    -19.48472443	    -14.96405102	    -12.95822128	     23.94047221	     18.08746434	      0.00000000	    -28.64016905	      9.99417494	     12.25294614	    -15.45256020	     31.18650108	     16.33544611	      0.00000000	    -34.08290266	     -4.57371716	    -19.69820129
      5.26500000	     11.07694984	     13.24740422	     11.12589124	      1.20910709	      0.73459073	     -0.28695592	     18.08542245	    -19.40436888	    -15.00357727	    -12.60586974	     23.65763777	     17.95211474	      0.00000000	    -28.80634262	      9.48777335	     12.44402786	    -16.41757091	     30.97422511	     16.78426651	      0.00000000	    -33.87561817	     -4.44217991	    -20.01010504
      5.27000000	     11.04122767	     13.20171246	     11.70056839	      1.21777578	      0.73399284	     -0.28628412	     17.76977607	    -19.26800345	    -15.00036556	    -12.39895141	     23.38802767	     17.63411445	      0.00000000	    -28.92155289	      8.95042352	     12.61000763	    -17.47462877	     30.73401056	     17.23704373	      0.00000000	    -33.66484200	     -4.29373048	    -20.21825653
      5.27500000	     11.01617123	     13.13332283	     12.22212763	      1.22650991	      0.73343516	     -0.28562616	     17.48762810	    -19.10650860	    -14.94806105	    -12.40520834	     23.02263081	     17.22613822	      0.00000000	    -29.00325733	      8.42819052	     12.73166506	    -18.58504993	     30.31107351	     17.58956070	      0.00000000	    -33.44456163	     -4.13153753	    -20.40024872
      5.28000000	     11.00067011	     13.00159684	     12.66332759	      1.23532154	      0.73286685	     -0.28488252	     17.22785585	    -18.82895050	    -14.67075365	    -12.53657864	     22.65400190	     16.43300495	      0.00000000	    -29.00860641	      7.88250552	     12.68400619	    -19.81052870	     29.88293987	     18.03289298	      0.00000000	    -33.20767140	     -3.95249599	    -20.39074621
      5.28500000	     10.99116179	     12.86699846	     13.13628643	      1.24416683	      0.73238012	     -0.28423492	     16.96399464	    -18.59241406	    -14.59652799	    -12.85489044	     22.24251177	     15.87599419	      0.00000000	    -28.97636581	      7.35312098	     12.81061655	    -21.11007412	     29.27729030	     18.22342483	      0.00000000	    -32.97206631	     -3.74753616	    -20.39895426
      5.29000000	     10.98816993	     12.66954003	     13.52735824	      1.25306526	      0.73189936	     -0.28349407	     16.75336960	    -18.25073807	    -14.35638482	    -13.32774746	     21.77235787	     15.06763554	      0.00000000	    -28.86682416	      6.80660138	     12.78369057	    -22.50531356	     28.56596120	     18.43666748	      0.00000000	    -32.71901496	     -3.52276167	    -20.29470721
      5.29500000	     11.00564121	     12.43250369	     13.80996931	      1.26200248	      0.73143373	     -0.28266407	     16.60872119	    -17.83362687	    -13.96377919	    -13.99122070	     21.28872823	     14.14717506	      0.00000000	    -28.70782967	      6.27817452	     12.62210612	    -23.97434403	     27.70677521	     18.59934166	      0.00000000	    -32.47070738	     -3.30036664	    -20.09234313
      5.30000000	     11.03164149	     12.13939944	     14.08229885	      1.27098023	      0.73104759	     -0.28187288	     16.45727638	    -17.36956656	    -13.69063343	    -14.73753819	     20.74474917	     13.39248590	      0.00000000	    -28.48622794	      5.73111294	     12.52554099	    -25.52735554	     26.67469738	     18.61634976	      0.00000000	    -32.21307258	     -3.02811829	    -19.75953010
      5.30500000	     11.07742344	     11.80653476	     14.26304696	      1.27994634	      0.73067683	     -0.28097294	     16.37527298	    -16.82450796	    -13.24623770	    -15.66044453	     20.20312324	     12.43852246	      0.00000000	    -28.19440140	      5.18828480	     12.26531606	    -27.17745388	     25.50472409	     18.60341337	      0.00000000	    -31.96757460	     -2.74938006	    -19.38960666
      5.31000000	     11.14294015	     11.42762042	     14.38568399	      1.28892082	      0.73036898	     -0.28001062	     16.31326218	    -16.21632553	    -12.81439104	    -16.68025451	     19.67507277	     11.57250046	      0.00000000	    -27.84824133	      4.64108160	     11.98506873	    -28.89757057	     24.14066408	     18.48782548	      0.00000000	    -31.73940478	     -2.45255593	    -18.93876297
      5.31500000	     11.22707277	     10.99039267	     14.45539293	      1.29787224	      0.73012099	     -0.27901514	     16.27085662	    -15.53337829	    -12.38479385	    -17.77848912	     19.14724347	     10.73012905	      0.00000000	    -27.42947421	      4.08062131	     11.67003831	    -30.71168004	     22.61482228	     18.24597400	      0.00000000	    -31.52115189	     -2.11099706	    -18.40823256
